# xmcd
#
# Track frame offsets:
#  150
#  14265
#  28300
#  41305
#  65359
#  78853
#  99770
#  112128
#  131593
#
# Disc length: 2023 seconds
#
# Revision: 0
# Processed by: cddbd v1.4PL0 Copyright (c) Steve Scherf et al.
# Submitted via: AltoMP3_Maker 3.0
#
DISCID=6907e509
DTITLE=Allan Greengrass - The Trail Of "98"
DYEAR=1900
DGENRE=
TTITLE0=Trail Of "98"
TTITLE1=Chilcoot Pass
TTITLE2=Ballad Of Soapy Smith
TTITLE3=God's Pearl, "The Yukon"
TTITLE4=Whitepass Yukon Railway
TTITLE5=My Yukon River Home
TTITLE6=Gold In Dawson City
TTITLE7=Miner's Prayer
TTITLE8=End Of The Trail
EXTD=
EXTT0=
EXTT1=
EXTT2=
EXTT3=
EXTT4=
EXTT5=
EXTT6=
EXTT7=
EXTT8=
PLAYORDER=
